<svg width="62" height="63" viewBox="0 0 62 63" fill="none" xmlns="http://www.w3.org/2000/svg">
<path d="M31 0.384644C13.9066 0.384644 0 14.2912 0 31.3846C0 48.478 13.9066 62.3846 31 62.3846C48.0934 62.3846 62 48.478 62 31.3846C62 14.2912 48.0934 0.384644 31 0.384644ZM15.0811 25.5198C12.7675 25.5198 10.8919 23.6442 10.8919 21.3306C10.8919 19.017 12.7675 17.1414 15.0811 17.1414C17.3947 17.1414 19.2703 19.017 19.2703 21.3306C19.2703 23.6442 17.3947 25.5198 15.0811 25.5198ZM26.8108 32.2225C24.4972 32.2225 22.6216 30.3469 22.6216 28.0333C22.6216 25.7197 24.4972 23.8441 26.8108 23.8441C29.1244 23.8441 31 25.7197 31 28.0333C31 30.3469 29.1244 32.2225 26.8108 32.2225ZM26.8108 18.8171C24.4972 18.8171 22.6216 16.9415 22.6216 14.6279C22.6216 12.3143 24.4972 10.4387 26.8108 10.4387C29.1244 10.4387 31 12.3143 31 14.6279C31 16.9415 29.1244 18.8171 26.8108 18.8171Z" fill="#C6A4E3"/>
</svg>
