<svg width="62" height="63" viewBox="0 0 62 63" fill="none" xmlns="http://www.w3.org/2000/svg">


<path style="transform-origin: 50% 50%;" d="M23.3731 15.1031C20.9566 13.2026 17.4356 13.3655 15.2083 15.5927C12.9811 17.82 12.8183 21.3412 14.7187 23.7576C9.13316 35.6264 17.8434 49.3848 31.0086 49.3848C33.7374 49.3848 36.3265 48.7746 38.6453 47.6821C41.0673 49.5873 44.5874 49.4154 46.809 47.1937C49.0362 44.9664 49.199 41.4452 47.2986 39.0288C48.3899 36.7098 49 34.1209 49 31.3931C48.9999 18.2229 35.2365 9.51985 23.3731 15.1031ZM19.5663 17.4062C21.8348 17.4062 22.9529 20.1624 21.3654 21.7498C20.3776 22.7376 18.7614 22.7453 17.7659 21.7498C16.1865 20.1702 17.2784 17.4062 19.5663 17.4062ZM42.3171 45.3765C40.1246 45.2631 39.0986 42.5899 40.6519 41.0365C41.631 40.0548 43.2454 40.0305 44.2514 41.0365C45.8771 42.6623 44.663 45.5025 42.3171 45.3765ZM44.2658 36.9474C39.5354 35.4994 35.1134 39.9154 36.5628 44.6504C24.7094 49.6327 12.8021 37.6143 17.7515 25.8389C22.4905 27.2926 26.9002 22.8583 25.4545 18.1358C37.2243 13.1887 49.2498 25.0892 44.2658 36.9474Z" fill="url(#paint0_linear)">
    <animateTransform attributeName="transform" type="rotate" dur="4s" repeatCount="indefinite" values="360; 180; 0"/>
</path>


<path d="M31.0036 0.384644C22.7242 0.384644 14.9399 3.60938 9.08572 9.46423C-3.02839 21.5799 -3.02876 41.1892 9.08572 53.3051C14.94 59.1599 22.7242 62.3846 31.0036 62.3846C48.1355 62.3846 62 48.5198 62 31.3846C62 14.2507 48.1367 0.384644 31.0036 0.384644ZM31.0036 58.7519C15.9146 58.7519 3.63952 46.4754 3.63952 31.3846C3.63952 16.2939 15.9146 4.0174 31.0036 4.0174C46.0926 4.0174 58.3675 16.2939 58.3675 31.3846C58.3675 46.4754 46.0925 58.7519 31.0036 58.7519Z" fill="#CDA2F0"/>
<path d="M30.9448 24.6627C27.0843 24.6627 23.9448 27.8023 23.9448 31.6628C23.9448 35.5233 27.0843 38.6628 30.9448 38.6628C34.8052 38.6628 37.9448 35.5233 37.9448 31.6628C37.9448 27.8023 34.8052 24.6627 30.9448 24.6627ZM30.9448 34.7235C29.2576 34.7235 27.8841 33.35 27.8841 31.6628C27.8841 29.9755 29.2576 28.602 30.9448 28.602C32.6321 28.602 34.0056 29.9755 34.0056 31.6628C34.0056 33.35 32.6321 34.7235 30.9448 34.7235Z" fill="#C6A4E3"/>
<defs>
<linearGradient id="paint0_linear" x1="31" y1="13.3848" x2="31" y2="49.3848" gradientUnits="userSpaceOnUse">
<stop stop-color="#CDA2F0"/>
<stop offset="1" stop-color="#C6A4E3"/>
<stop offset="1" stop-color="#C6A4E3" stop-opacity="0"/>
</linearGradient>
</defs>
</svg>
