<svg viewBox="0 0 1000 950" fill="none" xmlns="http://www.w3.org/2000/svg">

<circle r="9" fill="#C6A4E3">
    <animateMotion xmlns="http://www.w3.org/2000/svg" begin="1.2s" dur="10s" repeatCount="indefinite">
        <mpath xmlns:xlink="http://www.w3.org/1999/xlink" xlink:href="#main-circle"/>
    </animateMotion>
</circle>

<circle r="11.5" stroke="#C6A4E3">
    <animateMotion xmlns="http://www.w3.org/2000/svg" begin="1.2s" dur="10s" repeatCount="indefinite">
        <mpath xmlns:xlink="http://www.w3.org/1999/xlink" xlink:href="#main-circle"/>
    </animateMotion>
</circle>

<circle r="7.5" fill="#C6A4E3">
    <animateMotion xmlns="http://www.w3.org/2000/svg" begin="0" dur="10s" repeatCount="indefinite">
        <mpath xmlns:xlink="http://www.w3.org/1999/xlink" xlink:href="#main-circle"/>
    </animateMotion>
</circle>

<g transform="rotate(135)" style="transform-origin: 50% 50%; transform-box: fill-box;">
    <path d="M2.91127 -4.88656C2.89187 -6.33676 3.07137 -7.81586 3.44467 -9.28256C3.82927 -10.7932 4.38027 -12.2352 5.08257 -13.5686C5.32947 -14.0372 5.79737 -14.3171 6.33437 -14.3171C6.71427 -14.3171 7.07257 -14.1682 7.34287 -13.8978L14.7378 -6.50286C15.0628 -6.17786 15.2097 -5.73056 15.1407 -5.27566C15.073 -4.82836 14.806 -4.45176 14.4086 -4.24226C13.0756 -3.54026 11.6334 -2.98916 10.1226 -2.60466C8.72836 -2.24976 7.31967 -2.06976 5.93587 -2.06976C5.86517 -2.06976 5.79527 -2.07036 5.72657 -2.07116C4.19457 -2.09156 2.93157 -3.35446 2.91127 -4.88656ZM-11.4261 0.105242C-9.93223 -1.38856 -8.32203 -2.85086 -6.74893 -4.20326C-7.05393 -5.67156 -7.43393 -8.39796 -6.73163 -10.7854C-5.75583 -14.1036 -3.58773 -16.4888 -3.49603 -16.5887C-3.26143 -16.8439 -2.93283 -16.9924 -2.58613 -16.9998C-2.57713 -17 -2.56833 -17 -2.55933 -17C-2.22233 -17 -1.89853 -16.8662 -1.65983 -16.6273L1.99577 -12.9715C1.58747 -11.9865 1.24677 -10.9627 0.978966 -9.91016C0.550666 -8.22736 0.344665 -6.52576 0.367065 -4.85276C0.406265 -1.90566 2.74547 0.43384 5.69287 0.47294C5.77287 0.47404 5.85397 0.474541 5.93607 0.474541C7.53137 0.474541 9.15106 0.268041 10.7504 -0.139059C11.8031 -0.406859 12.8267 -0.747458 13.8117 -1.15576L17.4674 2.49994C17.7125 2.74504 17.847 3.07974 17.8397 3.42624C17.8324 3.77294 17.6838 4.10154 17.4285 4.33604C17.3286 4.42784 14.9434 6.59574 11.6253 7.57174C10.7248 7.83654 9.69859 7.97087 8.57486 7.97087C7.18537 7.97087 5.90067 7.76684 5.04357 7.58874C3.69117 9.16177 2.22867 10.7722 0.734865 12.266C-4.29374 17.2946 -11.8795 17.8373 -14.9075 17.8373C-15.4408 17.8373 -15.7521 17.8192 -15.7858 17.817C-16.4268 17.7775 -16.9377 17.2666 -16.9772 16.6256C-17.0032 16.2041 -17.5446 6.22374 -11.4261 0.105242ZM-10.5181 4.02394C-11.4976 5.00354 -12.037 6.30584 -12.037 7.69104C-12.037 9.07628 -11.4976 10.3786 -10.5181 11.3582C-9.53854 12.3377 -8.23623 12.8771 -6.85113 12.8771C-5.46583 12.8771 -4.16343 12.3377 -3.18393 11.3582C-2.20433 10.3786 -1.66493 9.07628 -1.66493 7.69104C-1.66493 6.30574 -2.20433 5.00354 -3.18393 4.02394C-4.16343 3.04444 -5.46583 2.50504 -6.85113 2.50504C-8.23623 2.50504 -9.53854 3.04444 -10.5181 4.02394ZM-6.85113 10.3328C-6.14543 10.3328 -5.48213 10.0581 -4.98303 9.55902C-4.48423 9.06 -4.20923 8.39662 -4.20923 7.69104C-4.20923 6.98534 -4.48403 6.32204 -4.98303 5.82294C-5.48213 5.32414 -6.14543 5.04914 -6.85113 5.04914C-7.55673 5.04914 -8.22013 5.32394 -8.71913 5.82294C-9.21793 6.32204 -9.49293 6.98534 -9.49293 7.69104C-9.49293 8.39662 -9.21813 9.06 -8.71913 9.55902C-8.21993 10.0581 -7.55653 10.3328 -6.85113 10.3328Z" fill="#C6A4E3">
        <animateTransform
            attributeName="transform"
            type="rotate"
            dur="10s"
            begin="2.4s"
            values="0; 360;"
            repeatCount="indefinite"
        />
        <animateMotion xmlns="http://www.w3.org/2000/svg" begin="2.4s" dur="10s" rotate="" repeatCount="indefinite">
            <mpath xmlns:xlink="http://www.w3.org/1999/xlink" xlink:href="#main-circle"/>
        </animateMotion>
    </path>
</g>

<circle r="7.5" fill="#C6A4E3">
    <animateMotion xmlns="http://www.w3.org/2000/svg" begin="3s" dur="10s" repeatCount="indefinite">
        <mpath xmlns:xlink="http://www.w3.org/1999/xlink" xlink:href="#main-circle"/>
    </animateMotion>
</circle>
<circle r="5.5" stroke="#C6A4E3">
    <animateMotion xmlns="http://www.w3.org/2000/svg" begin="4s" dur="10s" repeatCount="indefinite">
        <mpath xmlns:xlink="http://www.w3.org/1999/xlink" xlink:href="#main-circle"/>
    </animateMotion>
</circle>




<circle r="7.5" fill="#C6A4E3">
    <animateMotion xmlns="http://www.w3.org/2000/svg" begin="5.2" dur="10s" repeatCount="indefinite">
        <mpath xmlns:xlink="http://www.w3.org/1999/xlink" xlink:href="#main-circle"/>
    </animateMotion>
</circle>

<circle r="9" fill="#C6A4E3">
    <animateMotion xmlns="http://www.w3.org/2000/svg" begin="6.4s" dur="10s" repeatCount="indefinite">
        <mpath xmlns:xlink="http://www.w3.org/1999/xlink" xlink:href="#main-circle"/>
    </animateMotion>
</circle>

<circle r="11.5" stroke="#C6A4E3">
    <animateMotion xmlns="http://www.w3.org/2000/svg" begin="6.4s" dur="10s" repeatCount="indefinite">
        <mpath xmlns:xlink="http://www.w3.org/1999/xlink" xlink:href="#main-circle"/>
    </animateMotion>
</circle>


<g transform="rotate(135)" style="transform-origin: 50% 50%; transform-box: fill-box;">
    <path d="M2.91127 -4.88656C2.89187 -6.33676 3.07137 -7.81586 3.44467 -9.28256C3.82927 -10.7932 4.38027 -12.2352 5.08257 -13.5686C5.32947 -14.0372 5.79737 -14.3171 6.33437 -14.3171C6.71427 -14.3171 7.07257 -14.1682 7.34287 -13.8978L14.7378 -6.50286C15.0628 -6.17786 15.2097 -5.73056 15.1407 -5.27566C15.073 -4.82836 14.806 -4.45176 14.4086 -4.24226C13.0756 -3.54026 11.6334 -2.98916 10.1226 -2.60466C8.72836 -2.24976 7.31967 -2.06976 5.93587 -2.06976C5.86517 -2.06976 5.79527 -2.07036 5.72657 -2.07116C4.19457 -2.09156 2.93157 -3.35446 2.91127 -4.88656ZM-11.4261 0.105242C-9.93223 -1.38856 -8.32203 -2.85086 -6.74893 -4.20326C-7.05393 -5.67156 -7.43393 -8.39796 -6.73163 -10.7854C-5.75583 -14.1036 -3.58773 -16.4888 -3.49603 -16.5887C-3.26143 -16.8439 -2.93283 -16.9924 -2.58613 -16.9998C-2.57713 -17 -2.56833 -17 -2.55933 -17C-2.22233 -17 -1.89853 -16.8662 -1.65983 -16.6273L1.99577 -12.9715C1.58747 -11.9865 1.24677 -10.9627 0.978966 -9.91016C0.550666 -8.22736 0.344665 -6.52576 0.367065 -4.85276C0.406265 -1.90566 2.74547 0.43384 5.69287 0.47294C5.77287 0.47404 5.85397 0.474541 5.93607 0.474541C7.53137 0.474541 9.15106 0.268041 10.7504 -0.139059C11.8031 -0.406859 12.8267 -0.747458 13.8117 -1.15576L17.4674 2.49994C17.7125 2.74504 17.847 3.07974 17.8397 3.42624C17.8324 3.77294 17.6838 4.10154 17.4285 4.33604C17.3286 4.42784 14.9434 6.59574 11.6253 7.57174C10.7248 7.83654 9.69859 7.97087 8.57486 7.97087C7.18537 7.97087 5.90067 7.76684 5.04357 7.58874C3.69117 9.16177 2.22867 10.7722 0.734865 12.266C-4.29374 17.2946 -11.8795 17.8373 -14.9075 17.8373C-15.4408 17.8373 -15.7521 17.8192 -15.7858 17.817C-16.4268 17.7775 -16.9377 17.2666 -16.9772 16.6256C-17.0032 16.2041 -17.5446 6.22374 -11.4261 0.105242ZM-10.5181 4.02394C-11.4976 5.00354 -12.037 6.30584 -12.037 7.69104C-12.037 9.07628 -11.4976 10.3786 -10.5181 11.3582C-9.53854 12.3377 -8.23623 12.8771 -6.85113 12.8771C-5.46583 12.8771 -4.16343 12.3377 -3.18393 11.3582C-2.20433 10.3786 -1.66493 9.07628 -1.66493 7.69104C-1.66493 6.30574 -2.20433 5.00354 -3.18393 4.02394C-4.16343 3.04444 -5.46583 2.50504 -6.85113 2.50504C-8.23623 2.50504 -9.53854 3.04444 -10.5181 4.02394ZM-6.85113 10.3328C-6.14543 10.3328 -5.48213 10.0581 -4.98303 9.55902C-4.48423 9.06 -4.20923 8.39662 -4.20923 7.69104C-4.20923 6.98534 -4.48403 6.32204 -4.98303 5.82294C-5.48213 5.32414 -6.14543 5.04914 -6.85113 5.04914C-7.55673 5.04914 -8.22013 5.32394 -8.71913 5.82294C-9.21793 6.32204 -9.49293 6.98534 -9.49293 7.69104C-9.49293 8.39662 -9.21813 9.06 -8.71913 9.55902C-8.21993 10.0581 -7.55653 10.3328 -6.85113 10.3328Z" fill="#C6A4E3">
        <animateTransform
            attributeName="transform"
            type="rotate"
            dur="10s"
            begin="7.6s"
            values="0; 360;"
            repeatCount="indefinite"
        />
        <animateMotion xmlns="http://www.w3.org/2000/svg" begin="7.6s" dur="10s" rotate="" repeatCount="indefinite">
            <mpath xmlns:xlink="http://www.w3.org/1999/xlink" xlink:href="#main-circle"/>
        </animateMotion>
    </path>
</g>

<circle r="7.5" fill="#C6A4E3">
<animateMotion xmlns="http://www.w3.org/2000/svg" begin="8.2s" dur="10s" repeatCount="indefinite">
    <mpath xmlns:xlink="http://www.w3.org/1999/xlink" xlink:href="#main-circle"/>
</animateMotion>
</circle>
<circle r="5.5" stroke="#C6A4E3">
<animateMotion xmlns="http://www.w3.org/2000/svg" begin="9.2s" dur="10s" repeatCount="indefinite">
    <mpath xmlns:xlink="http://www.w3.org/1999/xlink" xlink:href="#main-circle"/>
</animateMotion>
</circle>
<path id="main-circle" d="M33 449C33 201.576 234.826 1 482.25 1C729.674 1 931.5 201.576 931.5 449C931.5 696.424 729.674 897 482.25 897C234.826 897 33 696.424 33 449Z" stroke="#C6A4E3" stroke-dasharray="12 12"/>
</svg>

