<svg viewBox="0 0 1000 950" fill="none" xmlns="http://www.w3.org/2000/svg">

<circle r="9" fill="#C6A4E3"></circle>

<circle r="7.5" fill="#C6A4E3"></circle>

<circle r="11.5" stroke="#C6A4E3"></circle>

<g>
    <path d="M14.9287 22.7239C14.9481 24.1741 14.7686 25.6532 14.3953 27.1199C14.0107 28.6305 13.4597 30.0725 12.7574 31.4059C12.5105 31.8745 12.0426 32.1544 11.5056 32.1544C11.1257 32.1544 10.7674 32.0055 10.4971 31.7351L3.10213 24.3402C2.77714 24.0152 2.63024 23.5679 2.69928 23.113C2.76696 22.6657 3.03394 22.2891 3.43136 22.0796C4.76441 21.3776 6.20652 20.8265 7.71733 20.442C9.11161 20.0871 10.5203 19.9071 11.9041 19.9071C11.9748 19.9071 12.0447 19.9077 12.1134 19.9085C13.6454 19.9289 14.9084 21.1918 14.9287 22.7239ZM29.2661 17.7321C27.7722 19.2259 26.162 20.6882 24.5889 22.0406C24.8939 23.5089 25.2739 26.2353 24.5716 28.6227C23.5958 31.9409 21.4277 34.3261 21.336 34.426C21.1014 34.6812 20.7728 34.8297 20.4261 34.8371C20.4171 34.8373 20.4083 34.8373 20.3993 34.8373C20.0623 34.8373 19.7385 34.7035 19.4998 34.4646L15.8442 30.8088C16.2525 29.8238 16.5932 28.8 16.861 27.7475C17.2893 26.0647 17.4953 24.3631 17.4729 22.6901C17.4337 19.743 15.0945 17.4035 12.1471 17.3644C12.0671 17.3633 11.986 17.3628 11.9039 17.3628C10.3086 17.3628 8.68891 17.5693 7.08956 17.9764C6.0369 18.2442 5.01324 18.5848 4.02826 18.9931L0.372598 15.3374C0.127497 15.0923 -0.00701178 14.7576 0.000281898 14.4111C0.00757557 14.0644 0.156163 13.7358 0.411442 13.5013C0.511348 13.4095 2.89655 11.2416 6.21466 10.2656C7.11517 10.0008 8.14138 9.86647 9.26511 9.86647C10.6546 9.86647 11.9393 10.0705 12.7964 10.2486C14.1488 8.67557 15.6113 7.06519 17.1051 5.57135C22.1337 0.542785 29.7195 0 32.7475 0C33.2808 0 33.5921 0.0181494 33.6258 0.0203544C34.2668 0.059876 34.7777 0.570772 34.8172 1.21177C34.8432 1.63327 35.3846 11.6136 29.2661 17.7321ZM28.3581 13.8134C29.3376 12.8338 29.877 11.5315 29.877 10.1463C29.877 8.76106 29.3376 7.45871 28.3581 6.47916C27.3785 5.4996 26.0762 4.96021 24.6911 4.96021C23.3058 4.96021 22.0034 5.4996 21.0239 6.47916C20.0443 7.45871 19.5049 8.76106 19.5049 10.1463C19.5049 11.5316 20.0443 12.8338 21.0239 13.8134C22.0034 14.7929 23.3058 15.3323 24.6911 15.3323C26.0762 15.3323 27.3785 14.7929 28.3581 13.8134ZM24.6911 7.50451C23.9854 7.50451 23.3221 7.77929 22.823 8.27832C22.3242 8.77734 22.0492 9.44072 22.0492 10.1463C22.0492 10.852 22.324 11.5153 22.823 12.0144C23.3221 12.5132 23.9854 12.7882 24.6911 12.7882C25.3967 12.7882 26.0601 12.5134 26.5591 12.0144C27.0579 11.5153 27.3329 10.852 27.3329 10.1463C27.3329 9.44072 27.0581 8.77734 26.5591 8.27832C26.0599 7.77929 25.3965 7.50451 24.6911 7.50451Z" fill="#C6A4E3"/>
</g>

<circle r="7.5" fill="#C6A4E3"></circle>
<circle r="5.5" stroke="#C6A4E3"></circle>
<path d="M33 449C33 201.576 234.826 1 482.25 1C729.674 1 931.5 201.576 931.5 449C931.5 696.424 729.674 897 482.25 897C234.826 897 33 696.424 33 449Z" stroke="#C6A4E3" stroke-dasharray="12 12"/>
</svg>

