<svg width="68" height="56" viewBox="0 0 68 56" fill="none" xmlns="http://www.w3.org/2000/svg">

<path d="M67.1557 16.676C67.1298 16.6327 67.1005 16.5921 67.0678 16.555C58.1393 6.3755 46.2685 0.769287 33.642 0.769287C21.0163 0.769287 9.14651 6.37432 0.218456 16.5528C0.0797068 16.7098 0 16.9247 0 17.1505C0 17.3737 0.0776404 17.5877 0.216242 17.7456L5.10389 23.3183C5.24235 23.4762 5.42995 23.5647 5.62568 23.5647C5.8214 23.5647 6.00916 23.476 6.14746 23.3183C13.5035 14.931 23.2679 10.3121 33.642 10.3121C44.016 10.3121 53.7804 14.9311 61.1366 23.3182C61.2751 23.476 61.4627 23.5645 61.6583 23.5645C61.854 23.5645 62.0419 23.4758 62.18 23.3182L67.0677 17.7454C67.2062 17.5876 67.2839 17.3737 67.2839 17.1504C67.2842 16.9812 67.2392 16.816 67.1557 16.676Z" fill="#CDA2F0">
    <animate attributeName="opacity" dur="1.2s" repeatCount="indefinite" values=".3; 1; .3"  begin=".9s"/>
</path>

<path d="M33.6421 15.5067C24.4823 15.5067 15.8614 19.5846 9.3672 26.989C9.07907 27.3176 9.07907 27.8505 9.36735 28.179L14.2398 33.734C14.3783 33.8919 14.5659 33.9806 14.7616 33.9806C14.9573 33.9806 15.1451 33.8919 15.2834 33.734C20.1952 28.1339 26.7151 25.0494 33.6421 25.0494C40.5693 25.0494 47.0892 28.1339 52.0006 33.734C52.1391 33.8919 52.3268 33.9806 52.5226 33.9806C52.7183 33.9806 52.906 33.8919 53.0443 33.734L57.9169 28.179C58.0554 28.0211 58.1332 27.8072 58.1332 27.5839C58.1332 27.3606 58.0557 27.1467 57.9169 26.9888C51.4227 19.5847 42.8019 15.5067 33.6421 15.5067Z" fill="#C6A4E3">
    <animate attributeName="opacity" dur="1.2s" repeatCount="indefinite" values=".3; 1; .3" begin=".6s"/>
</path>

<path d="M33.6421 30.2443C27.9296 30.2443 22.5531 32.7871 18.5031 37.4049C18.3645 37.5627 18.2869 37.7766 18.2869 38.0001C18.2869 38.2233 18.3644 38.4373 18.5031 38.595L23.3756 44.1503C23.514 44.3082 23.7016 44.3969 23.8973 44.3969C24.0931 44.3969 24.2808 44.3082 24.4191 44.1503C26.8869 41.3366 30.1623 39.7872 33.6421 39.7872C37.1219 39.7872 40.3976 41.337 42.8652 44.1503C43.0037 44.3082 43.1913 44.3969 43.3869 44.3969C43.5824 44.3969 43.7703 44.3082 43.9086 44.1503L48.7811 38.595C49.0692 38.2663 49.0692 37.7335 48.7811 37.4052C44.7312 32.7871 39.3547 30.2443 33.6421 30.2443Z" fill="#C6A4E3">
    <animate attributeName="opacity" dur="1.2s" repeatCount="indefinite" values=".3; 1; .3" begin=".3s"/>
</path>

<path id="wi-fi" d="M33.6421 45.8601C31.6463 45.8601 29.7705 46.746 28.3601 48.3544C28.072 48.6831 28.072 49.2157 28.3603 49.5442L33.1203 54.9714C33.2587 55.1292 33.4463 55.2179 33.6421 55.2179C33.8378 55.2179 34.0257 55.1292 34.1639 54.9714L38.9239 49.5442C39.212 49.2155 39.212 48.6829 38.9239 48.3542C37.5133 46.746 35.6376 45.8601 33.6421 45.8601Z" fill="#C6A4E3">
<animate attributeName="opacity" dur="1.2s" repeatCount="indefinite" values=".3; 1; .3" />
</path>

</svg>
